<svg width="653" height="148" viewBox="0 0 653 148" fill="none" xmlns="http://www.w3.org/2000/svg">
<path d="M252.295 69.8409C252.114 68.0076 251.333 66.5833 249.955 65.5682C248.576 64.553 246.705 64.0455 244.341 64.0455C242.735 64.0455 241.379 64.2727 240.273 64.7273C239.167 65.1667 238.318 65.7803 237.727 66.5682C237.152 67.3561 236.864 68.25 236.864 69.25C236.833 70.0833 237.008 70.8106 237.386 71.4318C237.78 72.053 238.318 72.5909 239 73.0455C239.682 73.4848 240.47 73.8712 241.364 74.2045C242.258 74.5227 243.212 74.7955 244.227 75.0227L248.409 76.0227C250.439 76.4773 252.303 77.0833 254 77.8409C255.697 78.5985 257.167 79.5303 258.409 80.6364C259.652 81.7424 260.614 83.0455 261.295 84.5455C261.992 86.0455 262.348 87.7652 262.364 89.7045C262.348 92.553 261.621 95.0227 260.182 97.1136C258.758 99.1894 256.697 100.803 254 101.955C251.318 103.091 248.083 103.659 244.295 103.659C240.538 103.659 237.265 103.083 234.477 101.932C231.705 100.78 229.538 99.0758 227.977 96.8182C226.432 94.5455 225.621 91.7348 225.545 88.3864H235.068C235.174 89.947 235.621 91.25 236.409 92.2955C237.212 93.3258 238.28 94.1061 239.614 94.6364C240.962 95.1515 242.485 95.4091 244.182 95.4091C245.848 95.4091 247.295 95.1667 248.523 94.6818C249.765 94.197 250.727 93.5227 251.409 92.6591C252.091 91.7955 252.432 90.803 252.432 89.6818C252.432 88.6364 252.121 87.7576 251.5 87.0455C250.894 86.3333 250 85.7273 248.818 85.2273C247.652 84.7273 246.22 84.2727 244.523 83.8636L239.455 82.5909C235.53 81.6364 232.432 80.1439 230.159 78.1136C227.886 76.0833 226.758 73.3485 226.773 69.9091C226.758 67.0909 227.508 64.6288 229.023 62.5227C230.553 60.4167 232.652 58.7727 235.318 57.5909C237.985 56.4091 241.015 55.8182 244.409 55.8182C247.864 55.8182 250.879 56.4091 253.455 57.5909C256.045 58.7727 258.061 60.4167 259.5 62.5227C260.939 64.6288 261.682 67.0682 261.727 69.8409H252.295ZM278.483 82.8182V103H268.801V56.4545H278.21V74.25H278.619C279.407 72.1894 280.68 70.5758 282.438 69.4091C284.195 68.2273 286.4 67.6364 289.051 67.6364C291.475 67.6364 293.589 68.1667 295.392 69.2273C297.21 70.2727 298.619 71.7803 299.619 73.75C300.634 75.7045 301.134 78.0455 301.119 80.7727V103H291.438V82.5C291.453 80.3485 290.907 78.6742 289.801 77.4773C288.71 76.2803 287.18 75.6818 285.21 75.6818C283.892 75.6818 282.725 75.9621 281.71 76.5227C280.71 77.0833 279.922 77.9015 279.347 78.9773C278.786 80.0379 278.498 81.3182 278.483 82.8182ZM324.511 103.682C320.981 103.682 317.928 102.932 315.352 101.432C312.792 99.9167 310.814 97.8106 309.42 95.1136C308.027 92.4015 307.33 89.2576 307.33 85.6818C307.33 82.0758 308.027 78.9242 309.42 76.2273C310.814 73.5152 312.792 71.4091 315.352 69.9091C317.928 68.3939 320.981 67.6364 324.511 67.6364C328.042 67.6364 331.087 68.3939 333.648 69.9091C336.223 71.4091 338.208 73.5152 339.602 76.2273C340.996 78.9242 341.693 82.0758 341.693 85.6818C341.693 89.2576 340.996 92.4015 339.602 95.1136C338.208 97.8106 336.223 99.9167 333.648 101.432C331.087 102.932 328.042 103.682 324.511 103.682ZM324.557 96.1818C326.163 96.1818 327.504 95.7273 328.58 94.8182C329.655 93.8939 330.466 92.6364 331.011 91.0455C331.572 89.4545 331.852 87.6439 331.852 85.6136C331.852 83.5833 331.572 81.7727 331.011 80.1818C330.466 78.5909 329.655 77.3333 328.58 76.4091C327.504 75.4848 326.163 75.0227 324.557 75.0227C322.936 75.0227 321.572 75.4848 320.466 76.4091C319.375 77.3333 318.549 78.5909 317.989 80.1818C317.443 81.7727 317.17 83.5833 317.17 85.6136C317.17 87.6439 317.443 89.4545 317.989 91.0455C318.549 92.6364 319.375 93.8939 320.466 94.8182C321.572 95.7273 322.936 96.1818 324.557 96.1818ZM347.989 116.091V68.0909H357.534V73.9545H357.966C358.39 73.0152 359.004 72.0606 359.807 71.0909C360.625 70.1061 361.686 69.2879 362.989 68.6364C364.307 67.9697 365.943 67.6364 367.898 67.6364C370.443 67.6364 372.792 68.303 374.943 69.6364C377.095 70.9545 378.814 72.947 380.102 75.6136C381.39 78.2652 382.034 81.5909 382.034 85.5909C382.034 89.4848 381.405 92.7727 380.148 95.4545C378.905 98.1212 377.208 100.144 375.057 101.523C372.92 102.886 370.527 103.568 367.875 103.568C365.996 103.568 364.398 103.258 363.08 102.636C361.777 102.015 360.708 101.235 359.875 100.295C359.042 99.3409 358.405 98.3788 357.966 97.4091H357.67V116.091H347.989ZM357.466 85.5455C357.466 87.6212 357.754 89.4318 358.33 90.9773C358.905 92.5227 359.739 93.7273 360.83 94.5909C361.92 95.4394 363.246 95.8636 364.807 95.8636C366.383 95.8636 367.716 95.4318 368.807 94.5682C369.898 93.6894 370.723 92.4773 371.284 90.9318C371.86 89.3712 372.148 87.5758 372.148 85.5455C372.148 83.5303 371.867 81.7576 371.307 80.2273C370.746 78.697 369.92 77.5 368.83 76.6364C367.739 75.7727 366.398 75.3409 364.807 75.3409C363.231 75.3409 361.898 75.7576 360.807 76.5909C359.731 77.4242 358.905 78.6061 358.33 80.1364C357.754 81.6667 357.466 83.4697 357.466 85.5455ZM388.489 116.091V68.0909H398.034V73.9545H398.466C398.89 73.0152 399.504 72.0606 400.307 71.0909C401.125 70.1061 402.186 69.2879 403.489 68.6364C404.807 67.9697 406.443 67.6364 408.398 67.6364C410.943 67.6364 413.292 68.303 415.443 69.6364C417.595 70.9545 419.314 72.947 420.602 75.6136C421.89 78.2652 422.534 81.5909 422.534 85.5909C422.534 89.4848 421.905 92.7727 420.648 95.4545C419.405 98.1212 417.708 100.144 415.557 101.523C413.42 102.886 411.027 103.568 408.375 103.568C406.496 103.568 404.898 103.258 403.58 102.636C402.277 102.015 401.208 101.235 400.375 100.295C399.542 99.3409 398.905 98.3788 398.466 97.4091H398.17V116.091H388.489ZM397.966 85.5455C397.966 87.6212 398.254 89.4318 398.83 90.9773C399.405 92.5227 400.239 93.7273 401.33 94.5909C402.42 95.4394 403.746 95.8636 405.307 95.8636C406.883 95.8636 408.216 95.4318 409.307 94.5682C410.398 93.6894 411.223 92.4773 411.784 90.9318C412.36 89.3712 412.648 87.5758 412.648 85.5455C412.648 83.5303 412.367 81.7576 411.807 80.2273C411.246 78.697 410.42 77.5 409.33 76.6364C408.239 75.7727 406.898 75.3409 405.307 75.3409C403.731 75.3409 402.398 75.7576 401.307 76.5909C400.231 77.4242 399.405 78.6061 398.83 80.1364C398.254 81.6667 397.966 83.4697 397.966 85.5455ZM428.989 103V68.0909H438.67V103H428.989ZM433.852 63.5909C432.413 63.5909 431.178 63.1136 430.148 62.1591C429.133 61.1894 428.625 60.0303 428.625 58.6818C428.625 57.3485 429.133 56.2045 430.148 55.25C431.178 54.2803 432.413 53.7955 433.852 53.7955C435.292 53.7955 436.519 54.2803 437.534 55.25C438.564 56.2045 439.08 57.3485 439.08 58.6818C439.08 60.0303 438.564 61.1894 437.534 62.1591C436.519 63.1136 435.292 63.5909 433.852 63.5909ZM456.108 82.8182V103H446.426V68.0909H455.653V74.25H456.062C456.835 72.2197 458.131 70.6136 459.949 69.4318C461.767 68.2348 463.972 67.6364 466.562 67.6364C468.987 67.6364 471.1 68.1667 472.903 69.2273C474.706 70.2879 476.108 71.803 477.108 73.7727C478.108 75.7273 478.608 78.0606 478.608 80.7727V103H468.926V82.5C468.941 80.3636 468.396 78.697 467.29 77.5C466.184 76.2879 464.661 75.6818 462.722 75.6818C461.419 75.6818 460.267 75.9621 459.267 76.5227C458.282 77.0833 457.509 77.9015 456.949 78.9773C456.403 80.0379 456.123 81.3182 456.108 82.8182ZM501.966 116.818C498.83 116.818 496.14 116.386 493.898 115.523C491.67 114.674 489.898 113.515 488.58 112.045C487.261 110.576 486.405 108.924 486.011 107.091L494.966 105.886C495.239 106.583 495.67 107.235 496.261 107.841C496.852 108.447 497.633 108.932 498.602 109.295C499.587 109.674 500.784 109.864 502.193 109.864C504.299 109.864 506.034 109.348 507.398 108.318C508.777 107.303 509.466 105.598 509.466 103.205V96.8182H509.057C508.633 97.7879 507.996 98.7045 507.148 99.5682C506.299 100.432 505.208 101.136 503.875 101.682C502.542 102.227 500.951 102.5 499.102 102.5C496.481 102.5 494.095 101.894 491.943 100.682C489.807 99.4545 488.102 97.5833 486.83 95.0682C485.572 92.5379 484.943 89.3409 484.943 85.4773C484.943 81.5227 485.587 78.2197 486.875 75.5682C488.163 72.9167 489.875 70.9318 492.011 69.6136C494.163 68.2955 496.519 67.6364 499.08 67.6364C501.034 67.6364 502.67 67.9697 503.989 68.6364C505.307 69.2879 506.367 70.1061 507.17 71.0909C507.989 72.0606 508.617 73.0152 509.057 73.9545H509.42V68.0909H519.034V103.341C519.034 106.311 518.307 108.795 516.852 110.795C515.398 112.795 513.383 114.295 510.807 115.295C508.246 116.311 505.299 116.818 501.966 116.818ZM502.17 95.2273C503.731 95.2273 505.049 94.8409 506.125 94.0682C507.216 93.2803 508.049 92.1591 508.625 90.7045C509.216 89.2348 509.511 87.4773 509.511 85.4318C509.511 83.3864 509.223 81.6136 508.648 80.1136C508.072 78.5985 507.239 77.4242 506.148 76.5909C505.057 75.7576 503.731 75.3409 502.17 75.3409C500.58 75.3409 499.239 75.7727 498.148 76.6364C497.057 77.4848 496.231 78.6667 495.67 80.1818C495.11 81.697 494.83 83.447 494.83 85.4318C494.83 87.447 495.11 89.1894 495.67 90.6591C496.246 92.1136 497.072 93.2424 498.148 94.0455C499.239 94.8333 500.58 95.2273 502.17 95.2273ZM541.733 103V56.4545H551.574V94.8864H571.528V103H541.733ZM577.864 103V68.0909H587.545V103H577.864ZM582.727 63.5909C581.288 63.5909 580.053 63.1136 579.023 62.1591C578.008 61.1894 577.5 60.0303 577.5 58.6818C577.5 57.3485 578.008 56.2045 579.023 55.25C580.053 54.2803 581.288 53.7955 582.727 53.7955C584.167 53.7955 585.394 54.2803 586.409 55.25C587.439 56.2045 587.955 57.3485 587.955 58.6818C587.955 60.0303 587.439 61.1894 586.409 62.1591C585.394 63.1136 584.167 63.5909 582.727 63.5909ZM624.347 78.0455L615.483 78.5909C615.331 77.8333 615.006 77.1515 614.506 76.5455C614.006 75.9242 613.347 75.4318 612.528 75.0682C611.725 74.6894 610.763 74.5 609.642 74.5C608.142 74.5 606.877 74.8182 605.847 75.4545C604.816 76.0758 604.301 76.9091 604.301 77.9545C604.301 78.7879 604.634 79.4924 605.301 80.0682C605.968 80.6439 607.112 81.1061 608.733 81.4545L615.051 82.7273C618.445 83.4242 620.975 84.5455 622.642 86.0909C624.309 87.6364 625.142 89.6667 625.142 92.1818C625.142 94.4697 624.468 96.4773 623.119 98.2045C621.786 99.9318 619.953 101.28 617.619 102.25C615.301 103.205 612.627 103.682 609.597 103.682C604.975 103.682 601.294 102.72 598.551 100.795C595.824 98.8561 594.225 96.2197 593.756 92.8864L603.278 92.3864C603.566 93.7955 604.263 94.8712 605.369 95.6136C606.475 96.3409 607.892 96.7045 609.619 96.7045C611.316 96.7045 612.68 96.3788 613.71 95.7273C614.756 95.0606 615.286 94.2045 615.301 93.1591C615.286 92.2803 614.915 91.5606 614.188 91C613.46 90.4242 612.339 89.9848 610.824 89.6818L604.778 88.4773C601.369 87.7955 598.831 86.6136 597.165 84.9318C595.513 83.25 594.688 81.1061 594.688 78.5C594.688 76.2576 595.294 74.3258 596.506 72.7045C597.733 71.0833 599.453 69.8333 601.665 68.9545C603.892 68.0758 606.498 67.6364 609.483 67.6364C613.892 67.6364 617.362 68.5682 619.892 70.4318C622.438 72.2955 623.922 74.8333 624.347 78.0455ZM649.807 68.0909V75.3636H628.784V68.0909H649.807ZM633.557 59.7273H643.239V92.2727C643.239 93.1667 643.375 93.8636 643.648 94.3636C643.92 94.8485 644.299 95.1894 644.784 95.3864C645.284 95.5833 645.86 95.6818 646.511 95.6818C646.966 95.6818 647.42 95.6439 647.875 95.5682C648.33 95.4773 648.678 95.4091 648.92 95.3636L650.443 102.568C649.958 102.72 649.277 102.894 648.398 103.091C647.519 103.303 646.451 103.432 645.193 103.477C642.86 103.568 640.814 103.258 639.057 102.545C637.314 101.833 635.958 100.727 634.989 99.2273C634.019 97.7273 633.542 95.8333 633.557 93.5455V59.7273Z" fill="#2F2E41"/>
<path d="M152.662 122.916L122.424 101.527C132.622 91.5909 141.898 77.4433 150.768 61.4473L181.007 82.8369C168.924 96.5609 158.688 110.029 152.662 122.916Z" fill="#6C63FF"/>
<path d="M152.67 100.143C157.599 100.143 161.595 96.147 161.595 91.2175C161.595 86.288 157.599 82.2919 152.67 82.2919C147.741 82.2919 143.746 86.288 143.746 91.2175C143.746 96.147 147.741 100.143 152.67 100.143Z" fill="white"/>
<path d="M8.57541 40.9301H1.8819V45.3929H8.57541V40.9301Z" fill="white"/>
<path d="M111.834 71.636H105.621C105.402 71.636 105.193 71.7228 105.038 71.8773C104.884 72.0318 104.797 72.2414 104.797 72.4599V75.1874C104.797 75.4059 104.884 75.6155 105.038 75.77C105.193 75.9245 105.402 76.0113 105.621 76.0113H106.65V80.098H110.805V76.0113H111.834C112.053 76.0113 112.262 75.9245 112.417 75.77C112.571 75.6155 112.658 75.4059 112.658 75.1874V72.4599C112.658 72.2414 112.571 72.0318 112.417 71.8773C112.262 71.7228 112.053 71.636 111.834 71.636Z" fill="#E6E6E6"/>
<path d="M118.058 96.5983C114.252 91.0296 112.307 84.3992 112.5 77.6571C112.504 77.5016 112.453 77.3496 112.357 77.227C112.262 77.1045 112.126 77.0189 111.974 76.9847V75.8062H105.412V76.9684H105.322C105.233 76.9685 105.146 76.986 105.064 77.02C104.983 77.0539 104.908 77.1036 104.846 77.1662C104.784 77.2288 104.734 77.3032 104.7 77.3849C104.667 77.4666 104.649 77.5542 104.649 77.6426C104.649 77.659 104.65 77.6753 104.651 77.6917C105.168 84.8989 103.423 91.3622 99.4142 97.0816C99.1835 97.4103 99.0657 97.8049 99.0784 98.2063L99.7959 120.404C99.8131 120.899 100.021 121.369 100.376 121.714C100.731 122.06 101.206 122.255 101.701 122.259H116.543C117.044 122.255 117.524 122.055 117.88 121.703C118.236 121.35 118.44 120.872 118.449 120.371L118.726 98.8191C118.734 98.0281 118.501 97.2533 118.058 96.5983Z" fill="#6C63FF"/>
<path opacity="0.2" d="M110.539 72.5248C110.539 72.9962 110.352 73.4483 110.018 73.7816C109.685 74.1149 109.233 74.3022 108.762 74.3022C108.29 74.3022 107.838 74.1149 107.505 73.7816C107.172 73.4483 106.984 72.9962 106.984 72.5248" fill="black"/>
<path d="M115.708 103.972H102.789C102.597 103.972 102.408 104.013 102.235 104.093C102.061 104.173 101.906 104.289 101.782 104.434C101.657 104.58 101.566 104.75 101.513 104.934C101.461 105.118 101.449 105.311 101.478 105.5L103.43 118.191H114.64L117.012 105.543C117.047 105.351 117.041 105.154 116.992 104.965C116.943 104.777 116.853 104.601 116.729 104.451C116.604 104.301 116.448 104.18 116.272 104.097C116.095 104.015 115.903 103.972 115.708 103.972Z" fill="white"/>
<path d="M94.1065 122.881H57.069C59.6585 108.88 59.0627 91.9726 57.069 73.7901H94.1065C92.1659 91.9727 91.5859 108.88 94.1065 122.881Z" fill="#6C63FF"/>
<path d="M75.8109 105.922C80.7399 105.922 84.7356 101.926 84.7356 96.9968C84.7356 92.0673 80.7399 88.0711 75.8109 88.0711C70.8819 88.0711 66.8862 92.0673 66.8862 96.9968C66.8862 101.926 70.8819 105.922 75.8109 105.922Z" fill="white"/>
<path d="M170.761 126.123H53.0951L28.1781 8.32075H6.91315V3.03503H32.4621L57.3791 120.837H170.761V126.123Z" fill="#3F3D56"/>
<path d="M70.3384 147.645C76.5936 147.645 81.6643 142.574 81.6643 136.318C81.6643 130.062 76.5936 124.991 70.3384 124.991C64.0833 124.991 59.0125 130.062 59.0125 136.318C59.0125 142.574 64.0833 147.645 70.3384 147.645Z" fill="#3F3D56"/>
<path d="M154.905 147.645C161.16 147.645 166.231 142.574 166.231 136.318C166.231 130.062 161.16 124.991 154.905 124.991C148.65 124.991 143.579 130.062 143.579 136.318C143.579 142.574 148.65 147.645 154.905 147.645Z" fill="#3F3D56"/>
<path d="M168.616 123.634H54.1334L33.934 23.8013H187.572C188.356 23.8014 189.131 23.9713 189.843 24.2993C190.555 24.6274 191.187 25.1058 191.697 25.7017C192.206 26.2975 192.581 26.9967 192.794 27.7511C193.008 28.5055 193.056 29.2972 192.934 30.0718L173.977 119.049C173.782 120.329 173.133 121.496 172.149 122.338C171.165 123.179 169.911 123.64 168.616 123.634ZM55.3766 122.124H168.616C169.551 122.128 170.455 121.796 171.166 121.188C171.876 120.581 172.344 119.738 172.485 118.814L191.442 29.8373C191.53 29.2782 191.495 28.7067 191.341 28.1622C191.187 27.6177 190.917 27.113 190.549 26.6829C190.181 26.2528 189.725 25.9075 189.211 25.6708C188.697 25.434 188.138 25.3115 187.572 25.3116H35.7671L55.3766 122.124Z" fill="#3F3D56"/>
<path d="M76.3892 123.315L63.1609 24.6794L64.6506 24.4333L77.8789 123.069L76.3892 123.315Z" fill="#3F3D56"/>
<path d="M149.943 122.557L148.452 122.316L161.294 24.4355L162.785 24.6772L149.943 122.557Z" fill="#3F3D56"/>
<path d="M114.899 24.5564H113.389V123.192H114.899V24.5564Z" fill="#3F3D56"/>
<path d="M41.6479 50.9865L41.6443 52.4968L187.822 52.8507L187.826 51.3405L41.6479 50.9865Z" fill="#3F3D56"/>
<path d="M177.51 97.6408L49.09 98.5188L49.1003 100.029L177.521 99.1511L177.51 97.6408Z" fill="#3F3D56"/>
<path d="M9.17848 9.4535C13.7656 9.4535 17.4841 7.42497 17.4841 4.92264C17.4841 2.42032 13.7656 0.391785 9.17848 0.391785C4.59139 0.391785 0.872803 2.42032 0.872803 4.92264C0.872803 7.42497 4.59139 9.4535 9.17848 9.4535Z" fill="#3F3D56"/>
</svg>
